{"title":"Box of Moonlight [1996] Tom DiCillo.avi","uid":8337189,"size":955554108,"categoryP":"video","categoryS":"movies","magnet":"?xt=urn:btih:05f828060e15e067c70383c257bc2a0b6b9035cd&amp;dn=Box+of+Moonlight+%5B1996%5D+Tom+DiCillo.avi&amp;tr=udp%3A%2F%2Ftracker.openbittorrent.com%3A80&amp;tr=udp%3A%2F%2Fopen.demonii.com%3A1337&amp;tr=udp%3A%2F%2Ftracker.coppersurfer.tk%3A6969&amp;tr=udp%3A%2F%2Fexodus.desync.com%3A6969","seeders":5,"leechers":0,"uploader":"yousef86","files":-1,"time":1365011991,"description":"::Release Info::\n================\n\nRelease Title: Box of Moonlight [1996] Tom DiCillo\nEncode date:\n\n::IMDB and TMDB Info::\n======================\nTMDB Link: http://www.themoviedb.org/movie/31146\nIMDB Link: http://www.imdb.com/title/tt0115738\nStoryline: Al Fountain, a middle-aged electrical engineer, is on the verge of a mid-life crisis, when he decides to take his time coming home from a business trip, rents a car, and heads out looking for a lake he remembers from his childhood. But his wandering takes him into the life of Kid, a free-spirited young man who helps Al escape from the routine of everyday life and find freedom to enjoy himself.\nGenre: Comedy | Drama\nRelease date: 01/01/1996\n\n::Actors::\n==========\nJohn Turturro ... Al Fountain\nSam Rockwell ... The Kid\nCatherine Keener ... Floatie Dupre\nDermot Mulroney ... Wick\nLisa Blount ... Purlene Dupre\nAnnie Corley ... Deb Fountain\nAlexander Goodwin ... Bobby Fountain\nMike Stanley ... Doob\nRica Martens ... Doris\nRay Aranha ... Soapy\nRobert Wightman ... Dex\n\nGeneral\n=======\nComplete name : Box of Moonlight [1996] Tom DiCillo.avi\nFormat : AVI\nFormat/Info : Audio Video Interleave\nFile size : 911 MiB\nDuration : 1h 51mn\nOverall bit rate : 1 140 Kbps\n\nVideo\n=====\nID : 0\nFormat : MPEG-4 Visual\nFormat profile : Simple@L1\nFormat settings, BVOP : No\nFormat settings, QPel : No\nFormat settings, GMC : No warppoints\nFormat settings, Matrix : Default (H.263)\nCodec ID : DX50\nCodec ID/Hint : DivX 5\nDuration : 1h 51mn\nBit rate : 1 000 Kbps\nWidth : 640 pixels\nHeight : 352 pixels\nDisplay aspect ratio : 16:9\nFrame rate : 23.976 fps\nColor space : YUV\nChroma subsampling : 4:2:0\nBit depth : 8 bits\nScan type : Progressive\nCompression mode : Lossy\nBits/(Pixel*Frame) : 0.185\nStream size : 799 MiB (88%)\nWriting library : Lavc51.1.0\n\nAudio\n=====\nID : 1\nFormat : MPEG Audio\nFormat version : Version 1\nFormat profile : Layer 3\nMode : Joint stereo\nMode extension : MS Stereo\nCodec ID : 55\nCodec ID/Hint : MP3\nDuration : 1h 51mn\nBit rate mode : Constant\nBit rate : 128 Kbps\nChannel(s) : 2 channels\nSampling rate : 44.1 KHz\nCompression mode : Lossy\nDelay relative to video : 26ms\nStream size : 102 MiB (11%)\nAlignment : Split accross interleaves\nInterleave, duration : 26 ms (0.63 video frame)\nWriting library : LAME3.96.1","torrent":{"xt":"urn:btih:05f828060e15e067c70383c257bc2a0b6b9035cd","amp;dn":"Box+of+Moonlight+%5B1996%5D+Tom+DiCillo.avi","amp;tr":["udp%3A%2F%2Ftracker.openbittorrent.com%3A80","udp%3A%2F%2Fopen.demonii.com%3A1337","udp%3A%2F%2Ftracker.coppersurfer.tk%3A6969","udp%3A%2F%2Fexodus.desync.com%3A6969"],"infoHash":"05f828060e15e067c70383c257bc2a0b6b9035cd","infoHashBuffer":{"type":"Buffer","data":[5,248,40,6,14,21,224,103,199,3,131,194,87,188,42,11,107,144,53,205]},"announce":[],"urlList":[]}}